<?xml version="1.0" standalone="no"?>
<svg xmlns="http://www.w3.org/2000/svg" viewBox="0 0 85.951 29" width="85.951" height="29"><g fill="#ff8888" color="#ff8888" transform="translate(0, 0) scale(0.58)"><svg width="50.0" height="50.0" x="0.0" y="0.0" viewBox="0 0 50 50"><path fill="currentColor" fill-rule="nonzero" d="M23.16.25v22.52H.65v26.61h26.61V26.86h22.52V.25H23.16zm0 45.03H4.74V26.86h18.42v18.42zm22.52-22.52H27.25V4.34h18.42v18.42h.01zM31.35 8.43h10.23v10.23H31.35V8.43zM8.83 30.95h10.23v10.23H8.83V30.95z"></path></svg></g><line x1="41" y1="1" x2="41" y2="28" stroke="#0b0cac" stroke-linecap="round"></line><path fill="#0b0cac" fill-rule="nonzero" d="M0.82 21.87L0.82 21.87Q0.26 21.87 0.13 21.74Q0 21.61 0.09 21.23L0.09 21.23Q0.12 21.12 0.33 20.19Q0.54 19.27 0.86 17.94Q1.17 16.62 1.54 15.07Q1.90 13.52 2.23 12.16L2.23 12.16Q1.73 12.21 1.50 12.08Q1.27 11.95 1.28 11.73Q1.29 11.51 1.54 11.27Q1.78 11.04 2.25 10.88L2.25 10.88Q2.34 10.83 2.53 10.78L2.53 10.78Q2.65 10.38 2.74 9.96L2.74 9.96Q2.84 9.61 2.93 9.21Q3.02 8.81 3.12 8.44L3.12 8.44L4.76 1.43Q4.90 0.89 5.19 0.62Q5.48 0.35 6.28 0.16L6.28 0.16Q6.94 0 7.20 0.04Q7.45 0.07 7.43 0.19L7.43 0.19Q7.36 0.45 7.08 1.43Q6.80 2.41 6.41 3.83Q6.02 5.25 5.58 6.95Q5.13 8.65 4.71 10.31L4.71 10.31Q6.12 10.10 8.13 9.96L8.13 9.96Q8.91 9.87 9.64 9.84Q10.38 9.82 11.06 9.84L11.06 9.84Q11.39 8.58 11.71 7.31Q12.02 6.05 12.30 4.97Q12.59 3.89 12.81 3.06Q13.03 2.23 13.15 1.83L13.15 1.83Q13.29 1.38 13.42 1.10Q13.55 0.82 13.72 0.66Q13.90 0.49 14.13 0.42Q14.37 0.35 14.67 0.30L14.67 0.30Q14.84 0.30 15.07 0.28L15.07 0.28Q15.26 0.28 15.52 0.27Q15.77 0.26 16.10 0.30L16.10 0.30Q15.21 2.70 14.45 5.14Q13.69 7.59 13.03 9.91L13.03 9.91Q13.45 9.96 13.77 9.98Q14.09 10.01 14.27 10.05L14.27 10.05Q14.84 10.15 14.99 10.36Q15.14 10.57 14.88 10.97L14.88 10.97L14.60 11.32Q14.46 11.51 14.25 11.75Q14.04 12 13.71 12.30L13.71 12.30Q13.52 12.23 13.32 12.16Q13.13 12.09 12.94 12.02L12.94 12.02Q12.70 11.95 12.49 11.88L12.49 11.88Q12.33 12.45 12.19 12.97Q12.05 13.50 11.93 14.04L11.93 14.04Q11.65 15.19 11.39 16.41L11.39 16.41Q11.18 17.46 10.96 18.74Q10.73 20.02 10.62 21.26L10.62 21.26Q10.43 21.35 10.24 21.39Q10.05 21.42 9.91 21.45L9.91 21.45Q9.75 21.47 9.59 21.49L9.59 21.49L9.56 21.49L9.52 21.49L9.47 21.49Q9.38 21.49 9.28 21.49Q9.19 21.49 9.09 21.45L9.09 21.45Q8.98 21.42 8.86 21.38L8.86 21.38Q8.74 21.33 8.64 21.29Q8.53 21.26 8.41 21.19L8.41 21.19Q8.60 20.41 8.71 19.73Q8.81 19.05 8.86 18.54L8.86 18.54Q8.93 17.93 8.95 17.46L8.95 17.46Q8.98 16.85 8.82 16.13Q8.67 15.40 8.36 14.70Q8.04 13.99 7.58 13.38Q7.13 12.77 6.54 12.35L6.54 12.35Q5.95 11.95 5.43 11.84Q4.90 11.72 4.36 11.77L4.36 11.77Q4.20 12.47 4.05 13.13Q3.91 13.78 3.82 14.39L3.82 14.39Q3.56 15.75 3.33 17.04L3.33 17.04Q3.14 18.14 2.94 19.32Q2.74 20.51 2.65 21.35L2.65 21.35Q2.27 21.54 1.95 21.64Q1.62 21.75 1.36 21.80L1.36 21.80Q1.08 21.87 0.82 21.87ZM10.10 11.46L10.10 11.46Q9.28 11.37 8.54 11.36Q7.80 11.34 7.24 11.34L7.24 11.34Q7.71 11.60 8.07 12.02Q8.44 12.45 8.84 12.98L8.84 12.98Q9.21 13.48 9.45 14.06Q9.68 14.65 9.84 15.19L9.84 15.19Q10.03 14.20 10.24 13.27Q10.45 12.33 10.64 11.51L10.64 11.51Q10.50 11.48 10.37 11.47Q10.24 11.46 10.10 11.46ZM26.79 16.36L26.79 16.36Q26.79 15.87 26.89 15.23Q27 14.60 27.16 13.93Q27.33 13.27 27.49 12.63Q27.66 12 27.77 11.51L27.77 11.51Q27.91 10.90 27.75 10.57Q27.59 10.24 27.19 10.24L27.19 10.24Q27 10.24 26.45 10.57Q25.90 10.90 25.25 11.71Q24.61 12.52 23.99 13.89Q23.37 15.26 23.02 17.37L23.02 17.37Q22.57 17.60 22.17 17.67L22.17 17.67Q21.96 17.72 21.80 17.74L21.80 17.74Q21.33 17.77 21.19 17.59Q21.05 17.41 21.23 16.73L21.23 16.73Q21.33 16.41 21.57 15.68Q21.82 14.95 22.05 14.10Q22.29 13.24 22.46 12.39Q22.64 11.53 22.64 10.90L22.64 10.90Q22.64 10.45 22.49 10.29Q22.34 10.13 22.05 10.13L22.05 10.13Q21.84 10.13 21.35 10.36Q20.86 10.59 20.25 11.27Q19.64 11.95 19.04 13.16Q18.45 14.37 18.02 16.29L18.02 16.29L18.02 16.24Q17.98 16.43 17.93 16.62L17.93 16.62Q17.88 16.78 17.86 16.97Q17.84 17.16 17.79 17.32L17.79 17.32L16.62 17.84Q16.50 17.88 16.32 17.91Q16.15 17.93 16.00 17.85Q15.84 17.77 15.77 17.51Q15.70 17.25 15.82 16.73L15.82 16.73L17.30 10.62Q17.37 10.31 17.41 10.03L17.41 10.03Q17.46 9.77 17.47 9.53Q17.48 9.28 17.44 9.12L17.44 9.12Q17.84 8.93 18.14 8.84Q18.45 8.74 18.63 8.70L18.63 8.70Q18.87 8.63 19.03 8.63L19.03 8.63Q19.78 8.63 19.52 9.91L19.52 9.91Q19.43 10.29 19.24 11.02L19.24 11.02Q19.69 10.45 20.19 9.95Q20.70 9.45 21.21 9.05Q21.73 8.65 22.25 8.41Q22.78 8.18 23.30 8.18L23.30 8.18Q23.70 8.18 23.96 8.41Q24.23 8.65 24.39 9.04Q24.54 9.42 24.56 9.95Q24.59 10.48 24.52 11.04L24.52 11.04Q24.89 10.55 25.35 10.04Q25.80 9.54 26.31 9.14Q26.81 8.74 27.35 8.48Q27.89 8.23 28.43 8.23L28.43 8.23Q29.06 8.23 29.40 8.60Q29.74 8.98 29.87 9.56Q30 10.15 29.94 10.83Q29.88 11.51 29.74 12.14L29.74 12.14L28.95 15.30Q28.69 16.48 29.44 16.48L29.44 16.48Q30.02 16.48 30.73 15.91Q31.43 15.35 32.10 14.58Q32.77 13.80 33.35 12.98Q33.94 12.16 34.34 11.67L34.34 11.67Q34.48 11.51 34.63 11.48Q34.78 11.46 34.89 11.54Q34.99 11.63 35.00 11.81Q35.02 12 34.88 12.28L34.88 12.28Q34.41 13.10 33.73 14.10Q33.05 15.09 32.24 15.96Q31.43 16.83 30.52 17.41Q29.60 18 28.62 18L28.62 18Q28.29 18 27.97 17.93Q27.66 17.86 27.39 17.67Q27.12 17.48 26.95 17.17Q26.79 16.85 26.79 16.36Z" transform="translate(51, 3.581)"></path></svg>